<mxfile host="app.diagrams.net" modified="2024-03-12T01:50:35.573Z" agent="Mozilla/5.0 (Windows NT 10.0; Win64; x64) AppleWebKit/537.36 (KHTML, like Gecko) Chrome/122.0.0.0 Safari/537.36" version="24.0.2" etag="2GgLYJOPe0sSWyB2Ufhf" type="github">
  <diagram name="第 1 页" id="LVWh7hBbTt7yXT6KXmA5">
    <mxGraphModel>
      <root>
        <mxCell id="0" />
        <mxCell id="1" parent="0" />
      </root>
    </mxGraphModel>
  </diagram>
</mxfile>
